<svg width="42" height="32" viewBox="0 0 42 32" fill="none" xmlns="http://www.w3.org/2000/svg">
<g clip-path="url(#clip0_3_85)">
<path d="M40.1067 -0.000114834C39.9249 -0.0188419 39.7417 -0.0188419 39.56 -0.000114834H2.22667C1.9874 0.00357202 1.74971 0.0394496 1.52 0.106552L20.7867 19.2932L40.1067 -0.000114834Z" fill="#FF8D29"/>
<path d="M42.08 1.85327L22.6667 21.1866C22.167 21.6833 21.4912 21.9621 20.7867 21.9621C20.0822 21.9621 19.4063 21.6833 18.9067 21.1866L-0.333333 1.99994C-0.39248 2.21733 -0.423841 2.44133 -0.426666 2.6666V29.3333C-0.426666 30.0405 -0.145715 30.7188 0.354382 31.2189C0.854479 31.719 1.53276 31.9999 2.24 31.9999H39.5733C40.2806 31.9999 40.9589 31.719 41.459 31.2189C41.9591 30.7188 42.24 30.0405 42.24 29.3333V2.6666C42.2294 2.38881 42.1754 2.11439 42.08 1.85327ZM4.06667 29.3333H2.21333V27.4266L11.9067 17.8133L13.7867 19.6933L4.06667 29.3333ZM39.5467 29.3333H37.68L27.96 19.6933L29.84 17.8133L39.5333 27.4266L39.5467 29.3333Z" fill="#FF8D29"/>
</g>
<defs>
<clipPath id="clip0_3_85">
<rect width="42" height="32" fill="white"/>
</clipPath>
</defs>
</svg>
