<svg width="37" height="39" viewBox="0 0 37 39" fill="none" xmlns="http://www.w3.org/2000/svg">
<g clip-path="url(#clip0_3_74)">
<path d="M24.6667 19.5C24.6667 17.7057 24.0645 16.1738 22.86 14.9043C21.6556 13.6348 20.2023 13 18.5 13C16.7977 13 15.3444 13.6348 14.14 14.9043C12.9355 16.1738 12.3333 17.7057 12.3333 19.5C12.3333 21.2943 12.9355 22.8262 14.14 24.0957C15.3444 25.3652 16.7977 26 18.5 26C20.2023 26 21.6556 25.3652 22.86 24.0957C24.0645 22.8262 24.6667 21.2943 24.6667 19.5ZM27.9909 19.5C27.9909 22.276 27.0675 24.6374 25.2207 26.584C23.3739 28.5306 21.1337 29.5039 18.5 29.5039C15.8663 29.5039 13.6261 28.5306 11.7793 26.584C9.93251 24.6374 9.00911 22.276 9.00911 19.5C9.00911 16.724 9.93251 14.3626 11.7793 12.416C13.6261 10.4694 15.8663 9.49609 18.5 9.49609C21.1337 9.49609 23.3739 10.4694 25.2207 12.416C27.0675 14.3626 27.9909 16.724 27.9909 19.5ZM30.5924 9.08984C30.5924 9.73307 30.3757 10.2832 29.9421 10.7402C29.5085 11.1973 28.9865 11.4258 28.3763 11.4258C27.7661 11.4258 27.2441 11.1973 26.8105 10.7402C26.377 10.2832 26.1602 9.73307 26.1602 9.08984C26.1602 8.44661 26.377 7.89648 26.8105 7.43945C27.2441 6.98242 27.7661 6.75391 28.3763 6.75391C28.9865 6.75391 29.5085 6.98242 29.9421 7.43945C30.3757 7.89648 30.5924 8.44661 30.5924 9.08984ZM18.5 3.50391C18.3876 3.50391 17.7733 3.49967 16.6572 3.49121C15.5411 3.48275 14.694 3.48275 14.1159 3.49121C13.5378 3.49967 12.7629 3.52507 11.7913 3.56738C10.8198 3.6097 9.99273 3.69434 9.31022 3.82129C8.62771 3.94824 8.0536 4.10482 7.58789 4.29102C6.78494 4.62956 6.07834 5.12044 5.4681 5.76367C4.85786 6.4069 4.39214 7.15169 4.07096 7.99805C3.89431 8.48893 3.74577 9.09408 3.62533 9.81348C3.50488 10.5329 3.42459 11.4046 3.38444 12.4287C3.34429 13.4528 3.3202 14.2695 3.31217 14.8789C3.30414 15.4883 3.30414 16.3812 3.31217 17.5576C3.3202 18.734 3.32422 19.3815 3.32422 19.5C3.32422 19.6185 3.3202 20.266 3.31217 21.4424C3.30414 22.6188 3.30414 23.5117 3.31217 24.1211C3.3202 24.7305 3.34429 25.5472 3.38444 26.5713C3.42459 27.5954 3.50488 28.4671 3.62533 29.1865C3.74577 29.9059 3.89431 30.5111 4.07096 31.002C4.39214 31.8483 4.85786 32.5931 5.4681 33.2363C6.07834 33.8796 6.78494 34.3704 7.58789 34.709C8.0536 34.8952 8.62771 35.0518 9.31022 35.1787C9.99273 35.3057 10.8198 35.3903 11.7913 35.4326C12.7629 35.4749 13.5378 35.5003 14.1159 35.5088C14.694 35.5173 15.5411 35.5173 16.6572 35.5088C17.7733 35.5003 18.3876 35.4961 18.5 35.4961C18.6124 35.4961 19.2267 35.5003 20.3428 35.5088C21.4589 35.5173 22.306 35.5173 22.8841 35.5088C23.4622 35.5003 24.2371 35.4749 25.2087 35.4326C26.1802 35.3903 27.0073 35.3057 27.6898 35.1787C28.3723 35.0518 28.9464 34.8952 29.4121 34.709C30.2151 34.3704 30.9217 33.8796 31.5319 33.2363C32.1421 32.5931 32.6079 31.8483 32.929 31.002C33.1057 30.5111 33.2542 29.9059 33.3747 29.1865C33.4951 28.4671 33.5754 27.5954 33.6156 26.5713C33.6557 25.5472 33.6798 24.7305 33.6878 24.1211C33.6959 23.5117 33.6959 22.6188 33.6878 21.4424C33.6798 20.266 33.6758 19.6185 33.6758 19.5C33.6758 19.3815 33.6798 18.734 33.6878 17.5576C33.6959 16.3812 33.6959 15.4883 33.6878 14.8789C33.6798 14.2695 33.6557 13.4528 33.6156 12.4287C33.5754 11.4046 33.4951 10.5329 33.3747 9.81348C33.2542 9.09408 33.1057 8.48893 32.929 7.99805C32.6079 7.15169 32.1421 6.4069 31.5319 5.76367C30.9217 5.12044 30.2151 4.62956 29.4121 4.29102C28.9464 4.10482 28.3723 3.94824 27.6898 3.82129C27.0073 3.69434 26.1802 3.6097 25.2087 3.56738C24.2371 3.52507 23.4622 3.49967 22.8841 3.49121C22.306 3.48275 21.4589 3.48275 20.3428 3.49121C19.2267 3.49967 18.6124 3.50391 18.5 3.50391ZM37 19.5C37 23.3763 36.9599 26.0592 36.8796 27.5488C36.719 31.0697 35.7233 33.7949 33.8926 35.7246C32.0618 37.6543 29.4763 38.7038 26.1361 38.873C24.7229 38.9577 22.1775 39 18.5 39C14.8225 39 12.2771 38.9577 10.8639 38.873C7.52365 38.7038 4.93815 37.6543 3.10742 35.7246C1.27669 33.7949 0.281033 31.0697 0.120443 27.5488C0.0401476 26.0592 0 23.3763 0 19.5C0 15.6237 0.0401476 12.9408 0.120443 11.4512C0.281033 7.93034 1.27669 5.20508 3.10742 3.27539C4.93815 1.3457 7.52365 0.296224 10.8639 0.126953C12.2771 0.0423177 14.8225 0 18.5 0C22.1775 0 24.7229 0.0423177 26.1361 0.126953C29.4763 0.296224 32.0618 1.3457 33.8926 3.27539C35.7233 5.20508 36.719 7.93034 36.8796 11.4512C36.9599 12.9408 37 15.6237 37 19.5Z" fill="white"/>
</g>
<defs>
<clipPath id="clip0_3_74">
<rect width="37" height="39" fill="white"/>
</clipPath>
</defs>
</svg>
