<svg width="35" height="39" viewBox="0 0 35 39" fill="none" xmlns="http://www.w3.org/2000/svg">
<path d="M7.9452 39V12.6868H0.442561V39H7.9452ZM4.19485 9.09199C6.81115 9.09199 8.43967 7.07144 8.43967 4.54642C8.39093 1.96447 6.81125 0 4.2445 0C1.67815 0 -9.15527e-05 1.96451 -9.15527e-05 4.54642C-9.15527e-05 7.07156 1.62803 9.09199 4.14587 9.09199H4.19462H4.19485ZM12.0979 39H19.6005V24.3054C19.6005 23.519 19.6493 22.7334 19.8474 22.1712C20.3898 20.5999 21.6243 18.9725 23.6968 18.9725C26.4117 18.9725 27.4978 21.3855 27.4978 24.9228V38.9998H35V23.9121C35 15.8297 31.2986 12.069 26.3623 12.069C22.3149 12.069 20.5379 14.7063 19.5506 16.5025H19.6007V12.6862H12.0981C12.1965 15.1553 12.0981 38.9995 12.0981 38.9995L12.0979 39Z" fill="#FF8D29"/>
</svg>
