<svg width="41" height="37" viewBox="0 0 41 37" fill="none" xmlns="http://www.w3.org/2000/svg">
<g clip-path="url(#clip0_3_88)">
<path d="M38.7222 0H2.27778C1.67367 0 1.09431 0.216567 0.667146 0.602058C0.239979 0.98755 0 1.51039 0 2.05556V34.9444C0 35.4896 0.239979 36.0125 0.667146 36.3979C1.09431 36.7834 1.67367 37 2.27778 37H38.7222C39.3263 37 39.9057 36.7834 40.3329 36.3979C40.76 36.0125 41 35.4896 41 34.9444V2.05556C41 1.51039 40.76 0.98755 40.3329 0.602058C39.9057 0.216567 39.3263 0 38.7222 0ZM34.0619 8.76694L31.8616 10.6683C31.7686 10.7323 31.6969 10.8181 31.6543 10.9163C31.6118 11.0146 31.5999 11.1215 31.6201 11.2254V25.2052C31.5999 25.3091 31.6118 25.416 31.6543 25.5143C31.6969 25.6125 31.7686 25.6983 31.8616 25.7623L34.0072 27.6657V28.0851H23.2083V27.6657L25.4337 25.7171C25.6546 25.5197 25.6546 25.4601 25.6546 25.16V13.8586L19.4682 28.0337H18.6299L11.4299 13.8586V23.3593C11.4015 23.5568 11.4227 23.7574 11.4921 23.9464C11.5616 24.1354 11.6773 24.3078 11.8308 24.4508L14.7258 27.6184V28.0357H6.51672V27.6184L9.41178 24.4508C9.56416 24.3079 9.67731 24.1347 9.74218 23.9451C9.80705 23.7556 9.82183 23.555 9.78533 23.3593V12.3744C9.80236 12.2241 9.77989 12.0722 9.71974 11.9311C9.65959 11.7901 9.56345 11.6638 9.43911 11.5625L6.86522 8.76694V8.34967H14.8511L21.0239 20.5658L26.4496 8.34967H34.0642V8.76694H34.0619Z" fill="#FF8D29"/>
</g>
<defs>
<clipPath id="clip0_3_88">
<rect width="41" height="37" fill="white"/>
</clipPath>
</defs>
</svg>
